# xmcd CD database file
#
# Track frame offsets:
#	150
#	19925
#	41119
#	57791
#	80476
#	119428
#	142561
#	164125
#	184229
#	197937
#	230286
#	258944
#
# Disc length: 3705 seconds
#
# Revision: 36
# Processed by: cddbd v1.5.2PL0 Copyright (c) Steve Scherf et al.
# Submitted via: CDex 1.50
#
DISCID=a40e770c
DTITLE=B.B. King and Eric Clapton - Riding With The King
DYEAR=2000
DGENRE=Blues
TTITLE0=Riding With The King
TTITLE1=Ten Long Years
TTITLE2=Key To The Highway
TTITLE3=Marry You
TTITLE4=Three O'Clock Blues
TTITLE5=Help The Poor
TTITLE6=I Wanna Be
TTITLE7=Worried Life Blues
TTITLE8=Days Of Old
TTITLE9=When My Heart Beats Like A Hammer
TTITLE10=Hold On! I'm Coming
TTITLE11=Come Rain Or Come Shine
EXTD=YEAR: 2000
EXTT0=
EXTT1=
EXTT2=
EXTT3=
EXTT4=
EXTT5=
EXTT6=
EXTT7=
EXTT8=
EXTT9=
EXTT10=
EXTT11=
PLAYORDER=
